<svg data-v-6805eed4="" version="1.0" xmlns="http://www.w3.org/2000/svg" xmlns:xlink="http://www.w3.org/1999/xlink" width="100%" height="100%" viewBox="0 0 340.000000 250.000000" preserveAspectRatio="xMidYMid meet" color-interpolation-filters="sRGB" style="margin: auto;"> <rect data-v-6805eed4="" x="0" y="0" width="100%" height="100%" fill="#fff" fill-opacity="0" class="background"></rect> <!----> <g data-v-6805eed4="" fill="#3a2b1a" class="icon-text-wrapper icon-svg-group iconsvg" transform="translate(79.82499694824219,77.3205680847168)"><g class="iconsvg-imagesvg" transform="translate(60.17500114440918,0)"><g><rect fill="#3a2b1a" fill-opacity="0" stroke-width="2" x="0" y="0" width="60" height="53.51886540005352" class="image-rect"></rect> <svg filter="url(#colors747074854)" x="0" y="0" width="60" height="53.51886540005352" filtersec="colorsf2616215175" class="image-svg-svg primary" style="overflow: visible;"><svg xmlns="http://www.w3.org/2000/svg" viewBox="0.007076367270201445 -0.0008505221921950579 112.11257934570312 100.00221252441406"><g fill-rule="evenodd"><path d="M27 97.93A56.08 56.08 0 0 1 9.29 19.08 55.77 55.77 0 0 0 23.59 50l.07.07c.53.58 1.06 1.14 1.62 1.7s1.12 1.09 1.72 1.62L45.54 72a14.93 14.93 0 0 1 4.53 10.93v1.59a15.12 15.12 0 0 1-8 13.52A15.09 15.09 0 0 1 27 97.93z" fill="#262cff"></path><path d="M23.59 50a55.77 55.77 0 0 1-14.3-30.92A56.46 56.46 0 0 1 27 2.08 15.08 15.08 0 0 1 42.11 2a15.12 15.12 0 0 1 8 13.52v1.59A15 15 0 0 1 45.55 28l-22 22z" fill="#4c8bfd" opacity=".8"></path><path d="M85.16 2.08a56.08 56.08 0 0 1 17.67 78.84A55.77 55.77 0 0 0 88.53 50l-.08-.07c-.52-.58-1.06-1.14-1.62-1.7s-1.12-1.09-1.69-1.62L66.58 28a14.93 14.93 0 0 1-4.53-10.93v-1.55A15.12 15.12 0 0 1 70 2a15.08 15.08 0 0 1 15.15.08z" fill="#f5432b"></path><path d="M88.53 50a55.77 55.77 0 0 1 14.3 30.92 56.35 56.35 0 0 1-17.67 17 15.46 15.46 0 0 1-23.11-13.44v-1.59A15 15 0 0 1 66.57 72l22-22z" fill="#efbb2e" opacity=".8"></path></g></svg></svg> <defs><filter id="colors747074854"><feColorMatrix type="matrix" values="0 0 0 0 0.2265625  0 0 0 0 0.16796875  0 0 0 0 0.1015625  0 0 0 1 0" class="icon-fecolormatrix"></feColorMatrix></filter> <filter id="colorsf2616215175"><feColorMatrix type="matrix" values="0 0 0 0 0.99609375  0 0 0 0 0.99609375  0 0 0 0 0.99609375  0 0 0 1 0" class="icon-fecolormatrix"></feColorMatrix></filter> <filter id="colorsb9676340401"><feColorMatrix type="matrix" values="0 0 0 0 0  0 0 0 0 0  0 0 0 0 0  0 0 0 1 0" class="icon-fecolormatrix"></feColorMatrix></filter></defs></g></g> <g transform="translate(0,60.518863677978516)"><g data-gra="path-name" fill-rule="" class="tp-name iconsvg-namesvg"><g transform="scale(1)"><g><path d="M7.87-20.42L7.87 0 10.8 0 10.8-20.42 17.7-20.42 17.7-22.86 0.98-22.86 0.98-20.42ZM19.65-11.43C19.65-9.57 19.9-7.9 20.4-6.43 20.9-4.95 21.6-3.71 22.49-2.7 23.39-1.69 24.44-0.92 25.66-0.38 26.88 0.15 28.21 0.42 29.65 0.42 31.11 0.42 32.42 0.13 33.55-0.45 34.69-1.03 35.71-1.85 36.62-2.89L34.98-4.67C34.24-3.86 33.46-3.23 32.63-2.79 31.81-2.35 30.84-2.13 29.72-2.13 28.63-2.13 27.65-2.35 26.78-2.79 25.91-3.23 25.17-3.86 24.56-4.67 23.96-5.48 23.49-6.46 23.15-7.61 22.82-8.76 22.65-10.06 22.65-11.5 22.65-12.92 22.82-14.19 23.17-15.33 23.52-16.47 24.01-17.44 24.63-18.24 25.26-19.04 26.02-19.66 26.9-20.09 27.78-20.52 28.77-20.73 29.86-20.73 30.84-20.73 31.69-20.54 32.42-20.16 33.15-19.77 33.82-19.26 34.43-18.61L36.06-20.45C35.39-21.2 34.53-21.85 33.48-22.42 32.44-22.99 31.22-23.28 29.83-23.28 28.36-23.28 27.01-23 25.77-22.46 24.52-21.91 23.45-21.13 22.54-20.1 21.64-19.08 20.93-17.84 20.42-16.38 19.91-14.91 19.65-13.26 19.65-11.43ZM38.54-11.43C38.54-9.57 38.79-7.9 39.3-6.43 39.81-4.95 40.52-3.71 41.43-2.7 42.33-1.69 43.41-0.92 44.67-0.38 45.92 0.15 47.31 0.42 48.82 0.42 50.35 0.42 51.72 0.17 52.94-0.33 54.16-0.83 55.15-1.46 55.89-2.23L55.89-11.85 48.4-11.85 48.4-9.44 53.24-9.44 53.24-3.48C52.78-3.07 52.18-2.74 51.45-2.49 50.71-2.25 49.94-2.13 49.13-2.13 47.9-2.13 46.81-2.35 45.87-2.79 44.93-3.23 44.14-3.86 43.5-4.67 42.86-5.48 42.38-6.46 42.04-7.61 41.7-8.76 41.53-10.06 41.53-11.5 41.53-12.92 41.71-14.19 42.07-15.33 42.43-16.47 42.94-17.44 43.59-18.24 44.24-19.04 45.03-19.66 45.96-20.09 46.89-20.52 47.93-20.73 49.09-20.73 50.26-20.73 51.21-20.53 51.97-20.12 52.72-19.72 53.39-19.21 53.97-18.61L55.61-20.45C54.94-21.15 54.07-21.79 53.01-22.39 51.96-22.98 50.64-23.28 49.06-23.28 47.53-23.28 46.12-23 44.84-22.46 43.57-21.91 42.46-21.13 41.52-20.1 40.57-19.08 39.84-17.84 39.32-16.38 38.8-14.91 38.54-13.26 38.54-11.43Z" transform="translate(-0.9800000190734863, 26.1299991607666)"></path></g> <!----> <!----> <!----> <!----> <!----> <!----> <g data-gra="path-name-1" fill="#3a2b1a" transform="translate(57.90999984741211,0)"><g transform="scale(1)"><path d="M10 0.21C12.82 0.21 15.3-0.8 17.39-2.82 18.29-3.69 19.09-4.7 19.79-5.89 21.53-8.82 22.86-12.72 22.86-17.21 22.86-22.96 20.24-26.13 14.6-26.13 9.62-26.13 5.05-23.97 2.58-21.25 1.25-19.76 0.56-18.22 0.56-16.62 0.56-14.46 1.88-13.69 4.08-13.69 4.08-13.9 3.97-14.01 3.9-14.25 3.76-14.63 3.73-15.05 3.73-15.57 3.73-18.54 5.05-20.7 6.76-22.13 8.43-23.52 10.87-24.53 13.76-24.53 14.67-24.53 15.4-24.39 15.99-24.15 17.91-23.31 18.22-21.25 18.22-18.43 18.22-16.17 17.84-13.76 17.11-11.22 16.76-10.03 16.38-8.92 15.92-7.87 15.12-6.06 14.04-4.32 12.68-3.28 12.09-2.82 11.5-2.61 10.94-2.61 9.3-2.61 8.92-4.74 8.92-6.66 8.92-10.84 10.52-15.96 12.02-18.99 13-20.98 14.01-22.26 15.02-22.86 14.43-23.07 13.97-23.14 13.21-23.14 8.68-23.14 5.99-17.6 4.81-13.55 4.25-11.57 3.76-9.13 3.76-6.79 3.76-2.37 5.71 0.21 10 0.21ZM30.03 0.21C32.13 0.21 33.87-0.52 35.26-1.95 37.28-4.01 38.61-7.91 38.61-12.09 38.61-15.37 37.46-17.6 34.36-17.6 32.82-17.6 31.46-17.11 30.28-16.1L30.84-18.71 25.82-18.71 20 8.71 25.26 7.46 27.07-1.05C27.63-0.17 28.61 0.21 30.03 0.21ZM27.63-3.62L29.69-13.38C30.17-14.22 30.98-15.09 32.09-15.09 32.58-15.09 32.93-14.91 33.21-14.63 33.62-14.15 33.83-13.34 33.83-12.2 33.83-9.37 32.96-6.1 31.85-4.53 31.05-3.38 30.07-2.82 28.95-2.82 28.26-2.82 27.8-3.14 27.63-3.62ZM42.89 0.21C43.69 0.21 44.46 0.07 45.19-0.21 46.2-0.59 47.07-1.22 47.87-2.06 48.82-3.1 49.58-4.49 50.21-6.24L48.75-6.24C48.47-5.33 48.05-4.6 47.49-4.04 47.04-3.59 46.41-3.17 45.61-3.17 44.63-3.17 44.18-3.48 44.18-4.46 44.18-4.91 44.22-5.3 44.32-5.57L46.55-16.03 48.64-16.03 48.92-17.42 46.83-17.42 48.01-22.93 42.86-22.23 41.81-17.42 40.66-17.42 40.38-16.03 41.53-16.03 39.44-6.24C39.27-5.37 39.16-4.63 39.16-3.97 39.16-1.46 40.42 0.21 42.89 0.21ZM51.81-22.06C51.81-21.67 51.88-21.32 52.02-20.98 52.4-20.07 53.31-19.3 54.56-19.3 54.95-19.3 55.3-19.37 55.64-19.51 56.59-19.9 57.35-20.77 57.35-22.06 57.35-22.44 57.28-22.79 57.14-23.14 56.76-24.08 55.85-24.84 54.56-24.84 54.18-24.84 53.83-24.77 53.48-24.63 52.58-24.25 51.81-23.34 51.81-22.06ZM52.2 0.21C53 0.21 53.76 0.07 54.49-0.21 55.51-0.59 56.38-1.22 57.18-2.06 58.12-3.1 58.89-4.49 59.51-6.24L58.05-6.24C57.77-5.33 57.35-4.6 56.79-4.04 56.34-3.59 55.71-3.17 54.91-3.17 53.94-3.17 53.48-3.48 53.48-4.46 53.48-4.91 53.52-5.3 53.62-5.57L56.13-17.42 51.11-17.42 48.75-6.24C48.57-5.37 48.47-4.63 48.47-3.97 48.47-1.46 49.72 0.21 52.2 0.21ZM79.23 0.21C80.45 0.21 81.5-0.14 82.44-0.87 83.76-1.88 84.84-3.69 85.71-6.24L84.25-6.24C83.83-5.19 83.41-4.43 83.07-4.01 82.58-3.45 82.02-3.17 81.32-3.17 80.35-3.17 79.93-3.66 79.93-4.63 79.93-4.91 79.97-5.3 80.07-5.78 80.24-6.69 80.49-7.7 80.77-8.78 81.11-10.07 81.6-12.51 81.6-13.62 81.6-16.17 80.24-17.56 77.74-17.56 76.93-17.56 76.17-17.39 75.47-17.04 74.49-16.55 73.62-15.75 72.89-14.6 72.58-16.48 71.46-17.6 69.3-17.6 67.32-17.6 66.1-16.79 65.05-15.61L65.44-17.42 60.42-17.42 56.72 0 61.74 0 64.11-11.18C64.43-12.16 64.81-12.93 65.23-13.48 65.71-14.11 66.27-14.43 66.93-14.43 67.7-14.43 67.98-13.76 67.98-12.89 67.98-12.58 67.94-12.3 67.87-12.02L65.33 0 70.35 0 72.72-11.18C73.03-12.16 73.38-12.93 73.8-13.45 74.29-14.08 74.84-14.39 75.44-14.39 76.27-14.39 76.69-13.8 76.69-12.61 76.69-12.13 76.66-11.53 76.52-10.87 76.27-9.65 75.57-6.76 75.33-5.54 75.19-4.84 75.12-4.25 75.12-3.73 75.12-1.22 76.69 0.21 79.23 0.21ZM87.28-22.06C87.28-21.67 87.35-21.32 87.49-20.98 87.87-20.07 88.78-19.3 90.03-19.3 90.42-19.3 90.77-19.37 91.11-19.51 92.06-19.9 92.82-20.77 92.82-22.06 92.82-22.44 92.75-22.79 92.61-23.14 92.23-24.08 91.32-24.84 90.03-24.84 89.65-24.84 89.3-24.77 88.95-24.63 88.05-24.25 87.28-23.34 87.28-22.06ZM87.67 0.21C88.47 0.21 89.23 0.07 89.97-0.21 90.98-0.59 91.85-1.22 92.65-2.06 93.59-3.1 94.36-4.49 94.98-6.24L93.52-6.24C93.24-5.33 92.82-4.6 92.26-4.04 91.81-3.59 91.18-3.17 90.38-3.17 89.41-3.17 88.95-3.48 88.95-4.46 88.95-4.91 88.99-5.3 89.09-5.57L91.6-17.42 86.59-17.42 84.22-6.24C84.04-5.37 83.94-4.63 83.94-3.97 83.94-1.46 85.19 0.21 87.67 0.21ZM105.47-5.4C104.53-5.4 103.52-4.88 103.52-3.9 103.52-3.45 103.76-3.21 104.18-3.17 104.04-2.58 103.34-2.47 102.54-2.47 102.06-2.47 101.57-2.51 101.08-2.58 100.07-2.68 100.07-2.68 99.9-2.68L108.43-17.42 99.48-17.42C98.19-17.42 97.18-16.86 96.52-16.2 95.99-15.68 95.44-14.81 95.44-13.9 95.44-13.03 96.17-12.37 97.04-12.37 98.15-12.37 98.92-13.1 98.92-14.22 98.92-14.6 98.82-14.81 98.61-14.88 98.57-14.88 98.54-14.91 98.54-14.98 98.54-15.57 99.62-15.54 100.45-15.54L102.4-15.54 93.52 0 102.75 0C104.15 0 105.16-0.52 105.89-1.25 106.48-1.85 107-2.72 107-3.73 107-4.74 106.48-5.4 105.47-5.4ZM113.41 0.21C118.01 0.21 121.05-2.96 123-6.24L121.81-6.24C120.28-4.56 118.57-2.72 115.64-2.72 113.69-2.72 113.14-3.59 113.14-5.64 113.14-5.99 113.14-6.45 113.21-7.04 115.47-7.18 117.42-8.12 118.78-9.3 120.07-10.45 121.22-12.13 121.22-14.39 121.22-16.76 119.83-17.74 117.39-17.74 115.16-17.74 113.31-16.93 111.78-15.4 111.11-14.74 110.52-13.97 110.03-13.1 108.89-11.08 107.98-8.36 107.98-5.33 107.98-1.71 109.83 0.21 113.41 0.21ZM118.54-14.46C118.54-12.86 117.8-11.5 117-10.56 116.2-9.65 114.98-8.82 113.48-8.71 113.97-11.18 114.95-13.83 116.41-15.26 116.83-15.68 117.25-15.89 117.67-15.89 118.4-15.89 118.54-15.26 118.54-14.46Z" transform="translate(-0.5600000023841858, 26.1299991607666)"></path></g></g></g></g> <!----></g></g><defs v-gra="od"></defs></svg>